<?xml version="1.0" encoding="UTF-8"?>
<svg xmlns="http://www.w3.org/2000/svg" xmlns:xlink="http://www.w3.org/1999/xlink" width="78.801003pt" height="89.817001pt" viewBox="0 0 78.801003 89.817001" version="1.1">
<defs>
<clipPath id="clip1">
  <path d="M 72 72 L 78.800781 72 L 78.800781 79 L 72 79 Z M 72 72 "/>
</clipPath>
<clipPath id="clip2">
  <path d="M 42 71 L 60 71 L 60 89.816406 L 42 89.816406 Z M 42 71 "/>
</clipPath>
</defs>
<g id="surface1">
<path style=" stroke:none;fill-rule:nonzero;fill:rgb(0%,11.372375%,29.411316%);fill-opacity:1;" d="M 34.257812 23.257812 C 34.257812 24.898438 32.925781 26.234375 31.28125 26.234375 C 29.636719 26.234375 28.304688 24.898438 28.304688 23.257812 C 28.304688 21.613281 29.636719 20.28125 31.28125 20.28125 C 32.925781 20.28125 34.257812 21.613281 34.257812 23.257812 "/>
<path style=" stroke:none;fill-rule:nonzero;fill:rgb(0%,11.372375%,29.411316%);fill-opacity:1;" d="M 60.882812 41.042969 C 60.882812 42.683594 59.550781 44.015625 57.90625 44.015625 C 56.261719 44.015625 54.929688 42.683594 54.929688 41.042969 C 54.929688 39.398438 56.261719 38.066406 57.90625 38.066406 C 59.550781 38.066406 60.882812 39.398438 60.882812 41.042969 "/>
<path style=" stroke:none;fill-rule:nonzero;fill:rgb(0%,11.372375%,29.411316%);fill-opacity:1;" d="M 74.820312 52.285156 C 74.820312 53.929688 73.488281 55.261719 71.84375 55.261719 C 70.199219 55.261719 68.867188 53.929688 68.867188 52.285156 C 68.867188 50.640625 70.199219 49.308594 71.84375 49.308594 C 73.488281 49.308594 74.820312 50.640625 74.820312 52.285156 "/>
<path style=" stroke:none;fill-rule:nonzero;fill:rgb(0%,11.372375%,29.411316%);fill-opacity:1;" d="M 25.179688 15.675781 C 25.179688 17.320312 23.847656 18.652344 22.203125 18.652344 C 20.558594 18.652344 19.226562 17.320312 19.226562 15.675781 C 19.226562 14.03125 20.558594 12.699219 22.203125 12.699219 C 23.847656 12.699219 25.179688 14.03125 25.179688 15.675781 "/>
<path style=" stroke:none;fill-rule:nonzero;fill:rgb(0%,11.372375%,29.411316%);fill-opacity:1;" d="M 5.953125 2.976562 C 5.953125 4.621094 4.617188 5.953125 2.976562 5.953125 C 1.332031 5.953125 0 4.621094 0 2.976562 C 0 1.332031 1.332031 0 2.976562 0 C 4.617188 0 5.953125 1.332031 5.953125 2.976562 "/>
<path style=" stroke:none;fill-rule:nonzero;fill:rgb(0%,11.372375%,29.411316%);fill-opacity:1;" d="M 76.253906 41.019531 C 76.253906 42.664062 74.917969 43.996094 73.277344 43.996094 C 71.632812 43.996094 70.300781 42.664062 70.300781 41.019531 C 70.300781 39.378906 71.632812 38.046875 73.277344 38.046875 C 74.917969 38.046875 76.253906 39.378906 76.253906 41.019531 "/>
<path style=" stroke:none;fill-rule:nonzero;fill:rgb(0%,11.372375%,29.411316%);fill-opacity:1;" d="M 57.859375 20.039062 C 57.859375 21.683594 56.527344 23.015625 54.882812 23.015625 C 53.242188 23.015625 51.910156 21.683594 51.910156 20.039062 C 51.910156 18.394531 53.242188 17.0625 54.882812 17.0625 C 56.527344 17.0625 57.859375 18.394531 57.859375 20.039062 "/>
<g clip-path="url(#clip1)" clip-rule="nonzero">
<path style=" stroke:none;fill-rule:nonzero;fill:rgb(0%,11.372375%,29.411316%);fill-opacity:1;" d="M 78.800781 75.238281 C 78.800781 76.882812 77.46875 78.214844 75.824219 78.214844 C 74.179688 78.214844 72.847656 76.882812 72.847656 75.238281 C 72.847656 73.59375 74.179688 72.261719 75.824219 72.261719 C 77.46875 72.261719 78.800781 73.59375 78.800781 75.238281 "/>
</g>
<path style=" stroke:none;fill-rule:nonzero;fill:rgb(0%,11.372375%,29.411316%);fill-opacity:1;" d="M 62.183594 30.738281 C 62.183594 32.378906 60.847656 33.710938 59.207031 33.710938 C 57.5625 33.710938 56.230469 32.378906 56.230469 30.738281 C 56.230469 29.09375 57.5625 27.761719 59.207031 27.761719 C 60.847656 27.761719 62.183594 29.09375 62.183594 30.738281 "/>
<g clip-path="url(#clip2)" clip-rule="nonzero">
<path style=" stroke:none;fill-rule:nonzero;fill:rgb(0%,11.372375%,29.411316%);fill-opacity:1;" d="M 59.878906 80.90625 C 59.878906 85.828125 55.890625 89.816406 50.964844 89.816406 C 46.042969 89.816406 42.054688 85.828125 42.054688 80.90625 C 42.054688 75.984375 46.042969 71.992188 50.964844 71.992188 C 55.890625 71.992188 59.878906 75.984375 59.878906 80.90625 "/>
</g>
<path style=" stroke:none;fill-rule:nonzero;fill:rgb(0%,11.372375%,29.411316%);fill-opacity:1;" d="M 70.488281 78.167969 C 70.488281 80.628906 68.492188 82.625 66.03125 82.625 C 63.570312 82.625 61.574219 80.628906 61.574219 78.167969 C 61.574219 75.707031 63.570312 73.710938 66.03125 73.710938 C 68.492188 73.710938 70.488281 75.707031 70.488281 78.167969 "/>
<path style=" stroke:none;fill-rule:nonzero;fill:rgb(0%,11.372375%,29.411316%);fill-opacity:1;" d="M 64.148438 68.511719 C 64.148438 70.976562 62.152344 72.96875 59.695312 72.96875 C 57.230469 72.96875 55.238281 70.976562 55.238281 68.511719 C 55.238281 66.054688 57.230469 64.058594 59.695312 64.058594 C 62.152344 64.058594 64.148438 66.054688 64.148438 68.511719 "/>
<path style=" stroke:none;fill-rule:nonzero;fill:rgb(0%,11.372375%,29.411316%);fill-opacity:1;" d="M 43.554688 53.078125 C 43.554688 55.539062 41.558594 57.535156 39.097656 57.535156 C 36.636719 57.535156 34.644531 55.539062 34.644531 53.078125 C 34.644531 50.617188 36.636719 48.621094 39.097656 48.621094 C 41.558594 48.621094 43.554688 50.617188 43.554688 53.078125 "/>
<path style=" stroke:none;fill-rule:nonzero;fill:rgb(0%,11.372375%,29.411316%);fill-opacity:1;" d="M 46.609375 41.277344 C 46.609375 43.738281 44.613281 45.730469 42.152344 45.730469 C 39.691406 45.730469 37.695312 43.738281 37.695312 41.277344 C 37.695312 38.816406 39.691406 36.820312 42.152344 36.820312 C 44.613281 36.820312 46.609375 38.816406 46.609375 41.277344 "/>
<path style=" stroke:none;fill-rule:nonzero;fill:rgb(0%,11.372375%,29.411316%);fill-opacity:1;" d="M 43.71875 31.457031 C 43.71875 33.917969 41.726562 35.910156 39.265625 35.910156 C 36.804688 35.910156 34.808594 33.917969 34.808594 31.457031 C 34.808594 28.996094 36.804688 27 39.265625 27 C 41.726562 27 43.71875 28.996094 43.71875 31.457031 "/>
<path style=" stroke:none;fill-rule:nonzero;fill:rgb(0%,11.372375%,29.411316%);fill-opacity:1;" d="M 58.304688 50.625 C 58.304688 53.085938 56.3125 55.082031 53.851562 55.082031 C 51.390625 55.082031 49.394531 53.085938 49.394531 50.625 C 49.394531 48.164062 51.390625 46.167969 53.851562 46.167969 C 56.3125 46.167969 58.304688 48.164062 58.304688 50.625 "/>
<path style=" stroke:none;fill-rule:nonzero;fill:rgb(90.979004%,85.488892%,0%);fill-opacity:1;" d="M 70.90625 60.765625 C 70.90625 63.226562 68.914062 65.21875 66.453125 65.21875 C 63.992188 65.21875 61.996094 63.226562 61.996094 60.765625 C 61.996094 58.304688 63.992188 56.308594 66.453125 56.308594 C 68.914062 56.308594 70.90625 58.304688 70.90625 60.765625 "/>
<path style=" stroke:none;fill-rule:nonzero;fill:rgb(0%,11.372375%,29.411316%);fill-opacity:1;" d="M 54.136719 60.714844 C 54.136719 63.175781 52.140625 65.171875 49.679688 65.171875 C 47.21875 65.171875 45.222656 63.175781 45.222656 60.714844 C 45.222656 58.253906 47.21875 56.257812 49.679688 56.257812 C 52.140625 56.257812 54.136719 58.253906 54.136719 60.714844 "/>
</g>
</svg>
